<?xml version="1.0" ?><!DOCTYPE svg  PUBLIC '-//W3C//DTD SVG 1.1//EN'  'http://www.w3.org/Graphics/SVG/1.1/DTD/svg11.dtd'><svg enable-background="new 0 0 64 64" height="64px" id="Layer_1" version="1.1" viewBox="0 0 64 64" width="64px" xml:space="preserve" xmlns="http://www.w3.org/2000/svg" xmlns:xlink="http://www.w3.org/1999/xlink"><g><path d="   M37.091,42.37c3.454,1.828,5.808,5.458,5.808,9.638c0,6.021-4.879,10.899-10.899,10.899c-6.019,0-10.898-4.879-10.898-10.899   c0-4.18,2.354-7.81,5.807-9.638h0.001V6.185c0-2.812,2.279-5.092,5.09-5.092l0,0c2.813,0,5.091,2.279,5.091,5.092V42.37" fill="none" stroke="#231F20" stroke-linecap="round" stroke-linejoin="round" stroke-miterlimit="10" stroke-width="2"/><line fill="none" stroke="#231F20" stroke-linecap="round" stroke-linejoin="round" stroke-miterlimit="10" stroke-width="2" x1="26.909" x2="29.998" y1="15.569" y2="15.569"/><line fill="none" stroke="#231F20" stroke-linecap="round" stroke-linejoin="round" stroke-miterlimit="10" stroke-width="2" x1="26.909" x2="29.998" y1="19.929" y2="19.929"/><line fill="none" stroke="#231F20" stroke-linecap="round" stroke-linejoin="round" stroke-miterlimit="10" stroke-width="2" x1="26.909" x2="29.998" y1="24.29" y2="24.29"/><line fill="none" stroke="#231F20" stroke-linecap="round" stroke-linejoin="round" stroke-miterlimit="10" stroke-width="2" x1="26.909" x2="29.998" y1="28.65" y2="28.65"/><line fill="none" stroke="#231F20" stroke-linecap="round" stroke-linejoin="round" stroke-miterlimit="10" stroke-width="2" x1="26.909" x2="29.998" y1="33.012" y2="33.012"/></g></svg>